<mxfile host="Electron" modified="2024-09-08T14:10:39.997Z" agent="Mozilla/5.0 (Windows NT 10.0; Win64; x64) AppleWebKit/537.36 (KHTML, like Gecko) draw.io/24.2.5 Chrome/120.0.6099.109 Electron/28.1.0 Safari/537.36" etag="uB_7ASAzhK5ajDLHfSgI" version="24.2.5" type="device">
  <diagram name="第 1 页" id="T55oCx6T3UNSbYCQgQW6">
    <mxGraphModel dx="1434" dy="836" grid="1" gridSize="10" guides="1" tooltips="1" connect="1" arrows="1" fold="1" page="1" pageScale="1" pageWidth="827" pageHeight="1169" math="0" shadow="0">
      <root>
        <mxCell id="0" />
        <mxCell id="1" parent="0" />
        <mxCell id="GPFPH4pABVegRnzaFm7f-19" style="edgeStyle=orthogonalEdgeStyle;rounded=0;orthogonalLoop=1;jettySize=auto;html=1;" edge="1" parent="1" source="GPFPH4pABVegRnzaFm7f-7" target="GPFPH4pABVegRnzaFm7f-11">
          <mxGeometry relative="1" as="geometry">
            <Array as="points">
              <mxPoint x="60" y="850" />
              <mxPoint x="100" y="850" />
            </Array>
          </mxGeometry>
        </mxCell>
        <mxCell id="GPFPH4pABVegRnzaFm7f-7" value="&lt;font style=&quot;font-size: 14px;&quot;&gt;&lt;b&gt;wait for bus&lt;/b&gt;&lt;/font&gt;" style="ellipse;whiteSpace=wrap;html=1;aspect=fixed;" vertex="1" parent="1">
          <mxGeometry y="880" width="120" height="120" as="geometry" />
        </mxCell>
        <mxCell id="GPFPH4pABVegRnzaFm7f-25" style="edgeStyle=orthogonalEdgeStyle;rounded=0;orthogonalLoop=1;jettySize=auto;html=1;" edge="1" parent="1" source="GPFPH4pABVegRnzaFm7f-8" target="GPFPH4pABVegRnzaFm7f-15">
          <mxGeometry relative="1" as="geometry" />
        </mxCell>
        <mxCell id="GPFPH4pABVegRnzaFm7f-8" value="&lt;b&gt;&lt;font style=&quot;font-size: 14px;&quot;&gt;wait for Metro&lt;/font&gt;&lt;/b&gt;" style="ellipse;whiteSpace=wrap;html=1;aspect=fixed;" vertex="1" parent="1">
          <mxGeometry x="560" y="720" width="120" height="120" as="geometry" />
        </mxCell>
        <mxCell id="GPFPH4pABVegRnzaFm7f-23" style="edgeStyle=orthogonalEdgeStyle;rounded=0;orthogonalLoop=1;jettySize=auto;html=1;entryX=0.5;entryY=1;entryDx=0;entryDy=0;" edge="1" parent="1" source="GPFPH4pABVegRnzaFm7f-10" target="GPFPH4pABVegRnzaFm7f-7">
          <mxGeometry relative="1" as="geometry" />
        </mxCell>
        <mxCell id="GPFPH4pABVegRnzaFm7f-10" value="&lt;b&gt;&lt;font style=&quot;font-size: 14px;&quot;&gt;walk to bus station&lt;/font&gt;&lt;/b&gt;" style="whiteSpace=wrap;html=1;aspect=fixed;" vertex="1" parent="1">
          <mxGeometry x="160" y="1000" width="120" height="120" as="geometry" />
        </mxCell>
        <mxCell id="GPFPH4pABVegRnzaFm7f-20" style="edgeStyle=orthogonalEdgeStyle;rounded=0;orthogonalLoop=1;jettySize=auto;html=1;" edge="1" parent="1" source="GPFPH4pABVegRnzaFm7f-11" target="GPFPH4pABVegRnzaFm7f-13">
          <mxGeometry relative="1" as="geometry" />
        </mxCell>
        <mxCell id="GPFPH4pABVegRnzaFm7f-11" value="&lt;font style=&quot;font-size: 14px;&quot;&gt;&lt;b&gt;board the bus&lt;/b&gt;&lt;/font&gt;" style="whiteSpace=wrap;html=1;aspect=fixed;" vertex="1" parent="1">
          <mxGeometry x="40" y="720" width="120" height="120" as="geometry" />
        </mxCell>
        <mxCell id="GPFPH4pABVegRnzaFm7f-12" value="&lt;b&gt;&lt;font style=&quot;font-size: 14px;&quot;&gt;board the Metro&lt;/font&gt;&lt;/b&gt;" style="whiteSpace=wrap;html=1;aspect=fixed;" vertex="1" parent="1">
          <mxGeometry x="640" y="1000" width="120" height="120" as="geometry" />
        </mxCell>
        <mxCell id="GPFPH4pABVegRnzaFm7f-13" value="&lt;font style=&quot;font-size: 14px;&quot;&gt;&lt;b&gt;wait for bus to move&lt;/b&gt;&lt;/font&gt;" style="ellipse;whiteSpace=wrap;html=1;aspect=fixed;" vertex="1" parent="1">
          <mxGeometry x="240" y="720" width="120" height="120" as="geometry" />
        </mxCell>
        <mxCell id="GPFPH4pABVegRnzaFm7f-26" style="edgeStyle=orthogonalEdgeStyle;rounded=0;orthogonalLoop=1;jettySize=auto;html=1;entryX=0.5;entryY=0;entryDx=0;entryDy=0;" edge="1" parent="1" source="GPFPH4pABVegRnzaFm7f-15" target="GPFPH4pABVegRnzaFm7f-16">
          <mxGeometry relative="1" as="geometry" />
        </mxCell>
        <mxCell id="GPFPH4pABVegRnzaFm7f-15" value="&lt;b&gt;&lt;font style=&quot;font-size: 14px;&quot;&gt;get off Metro station&lt;/font&gt;&lt;/b&gt;" style="whiteSpace=wrap;html=1;aspect=fixed;" vertex="1" parent="1">
          <mxGeometry x="760" y="720" width="120" height="120" as="geometry" />
        </mxCell>
        <mxCell id="GPFPH4pABVegRnzaFm7f-16" value="&lt;b&gt;&lt;font style=&quot;font-size: 14px;&quot;&gt;wait for Metro to move&lt;/font&gt;&lt;/b&gt;" style="ellipse;whiteSpace=wrap;html=1;aspect=fixed;" vertex="1" parent="1">
          <mxGeometry x="810" y="880" width="120" height="120" as="geometry" />
        </mxCell>
        <mxCell id="GPFPH4pABVegRnzaFm7f-24" style="edgeStyle=orthogonalEdgeStyle;rounded=0;orthogonalLoop=1;jettySize=auto;html=1;exitX=0.83;exitY=-0.017;exitDx=0;exitDy=0;exitPerimeter=0;" edge="1" parent="1" source="GPFPH4pABVegRnzaFm7f-18" target="GPFPH4pABVegRnzaFm7f-8">
          <mxGeometry relative="1" as="geometry">
            <Array as="points">
              <mxPoint x="552" y="840" />
            </Array>
          </mxGeometry>
        </mxCell>
        <mxCell id="GPFPH4pABVegRnzaFm7f-18" value="&lt;span style=&quot;font-family: &amp;quot;PingFang SC&amp;quot;, Arial, &amp;quot;Hiragino Sans GB&amp;quot;, STHeiti, &amp;quot;Microsoft YaHei&amp;quot;, &amp;quot;WenQuanYi Micro Hei&amp;quot;, sans-serif; font-size: 16px; font-variant-ligatures: no-common-ligatures; font-weight: 600; text-align: start; background-color: rgb(255, 255, 255);&quot;&gt;Transfer Station&lt;/span&gt;" style="rounded=0;whiteSpace=wrap;html=1;fillStyle=auto;fillColor=default;" vertex="1" parent="1">
          <mxGeometry x="320" y="880" width="280" height="120" as="geometry" />
        </mxCell>
        <mxCell id="GPFPH4pABVegRnzaFm7f-21" style="edgeStyle=orthogonalEdgeStyle;rounded=0;orthogonalLoop=1;jettySize=auto;html=1;entryX=0.176;entryY=0.004;entryDx=0;entryDy=0;entryPerimeter=0;" edge="1" parent="1" source="GPFPH4pABVegRnzaFm7f-13" target="GPFPH4pABVegRnzaFm7f-18">
          <mxGeometry relative="1" as="geometry">
            <Array as="points">
              <mxPoint x="369" y="840" />
            </Array>
          </mxGeometry>
        </mxCell>
        <mxCell id="GPFPH4pABVegRnzaFm7f-22" style="edgeStyle=orthogonalEdgeStyle;rounded=0;orthogonalLoop=1;jettySize=auto;html=1;entryX=1;entryY=0.56;entryDx=0;entryDy=0;entryPerimeter=0;exitX=0.152;exitY=1.004;exitDx=0;exitDy=0;exitPerimeter=0;" edge="1" parent="1" source="GPFPH4pABVegRnzaFm7f-18" target="GPFPH4pABVegRnzaFm7f-10">
          <mxGeometry relative="1" as="geometry" />
        </mxCell>
        <mxCell id="GPFPH4pABVegRnzaFm7f-27" style="edgeStyle=orthogonalEdgeStyle;rounded=0;orthogonalLoop=1;jettySize=auto;html=1;entryX=1.014;entryY=0.678;entryDx=0;entryDy=0;entryPerimeter=0;" edge="1" parent="1" source="GPFPH4pABVegRnzaFm7f-16" target="GPFPH4pABVegRnzaFm7f-12">
          <mxGeometry relative="1" as="geometry">
            <Array as="points">
              <mxPoint x="840" y="1081" />
            </Array>
          </mxGeometry>
        </mxCell>
        <mxCell id="GPFPH4pABVegRnzaFm7f-28" style="edgeStyle=orthogonalEdgeStyle;rounded=0;orthogonalLoop=1;jettySize=auto;html=1;entryX=0.839;entryY=0.997;entryDx=0;entryDy=0;entryPerimeter=0;" edge="1" parent="1" source="GPFPH4pABVegRnzaFm7f-12" target="GPFPH4pABVegRnzaFm7f-18">
          <mxGeometry relative="1" as="geometry" />
        </mxCell>
      </root>
    </mxGraphModel>
  </diagram>
</mxfile>
